<svg aria-hidden="true" style="position:absolute;width:0;height:0;overflow:hidden" xmlns="http://www.w3.org/2000/svg">
  <defs>
  <symbol id="icon-logo" viewBox="0 0 96 32">
    <path d="M16.468 20.13c-0.039-0.076-0.068-0.134-0.098-0.192-0.372-0.715-1.27-1.179-2.066-1.069-0.684 0.094-1.254 0.663-1.455 1.466-0.216 0.866-0.060 1.701 0.252 2.513 0.508 1.324 1.313 2.456 2.304 3.458 0.686 0.693 1.232 0.681 1.907-0.024 0.937-0.979 1.697-2.078 2.224-3.33 0.311-0.738 0.54-1.498 0.574-2.305 0.025-0.583-0.050-1.144-0.382-1.644-0.421-0.635-1.114-0.822-1.796-0.487-0.424 0.208-0.759 0.52-1.023 0.906-0.152 0.221-0.284 0.456-0.44 0.709zM29.659 23.851c-0.016 1.091-0.262 2.131-0.764 3.097-0.853 1.639-2.087 2.91-3.738 3.761-1.628 0.84-3.297 0.936-5.002 0.267-0.692-0.271-1.382-0.552-2.057-0.863-1.226-0.565-2.447-0.56-3.701-0.090-0.881 0.33-1.774 0.631-2.677 0.892-0.935 0.271-1.898 0.369-2.874 0.258-0.844-0.096-1.556-0.47-2.174-1.035-0.787-0.721-1.418-1.563-1.815-2.556-0.51-1.272-0.387-2.5 0.355-3.66 0.581-0.908 1.365-1.632 2.125-2.381 0.552-0.545 1.093-1.104 1.602-1.689 0.587-0.675 0.937-1.49 1.228-2.327 0.27-0.777 0.515-1.562 0.781-2.34 0.192-0.562 0.545-1.030 0.894-1.503 0.839-1.141 2.037-1.64 3.359-1.934 1.567-0.348 2.933 0.101 4.098 1.132 0.717 0.634 1.338 1.377 2.005 2.068 1.137 1.176 2.343 2.275 3.694 3.203 0.673 0.462 1.378 0.876 2.045 1.345 0.954 0.672 1.759 1.487 2.251 2.569 0.257 0.567 0.359 1.167 0.368 1.786z"></path>
    <path d="M14.273 7.668c0.003 0.874-0.152 1.817-0.566 2.703-0.443 0.948-1.084 1.698-2.138 1.99-0.867 0.24-1.668 0.047-2.415-0.42-0.982-0.613-1.646-1.503-2.14-2.527-0.717-1.487-0.994-3.059-0.847-4.703 0.087-0.971 0.361-1.878 0.904-2.704 0.935-1.423 2.617-1.826 4.079-0.96 0.948 0.562 1.613 1.382 2.118 2.341 0.689 1.306 1.017 2.703 1.005 4.279z"></path>
    <path d="M24.483 5.065c0.001 1.78-0.327 3.274-1.137 4.64-0.453 0.764-1.032 1.415-1.832 1.833-1.17 0.612-2.459 0.387-3.377-0.569-0.727-0.757-1.122-1.678-1.333-2.687-0.365-1.744-0.177-3.447 0.441-5.103 0.299-0.802 0.735-1.535 1.363-2.127 0.578-0.545 1.237-0.973 2.058-1.041 1.044-0.087 1.864 0.356 2.52 1.138 0.676 0.806 1.013 1.762 1.18 2.783 0.072 0.44 0.094 0.888 0.119 1.133z"></path>
    <path d="M0 13.646c0.014-0.795 0.166-1.543 0.639-2.191 0.618-0.848 1.482-1.16 2.504-1.096 1.034 0.065 1.914 0.511 2.704 1.141 1.407 1.122 2.338 2.555 2.708 4.327 0.164 0.784 0.176 1.576-0.098 2.339-0.472 1.313-1.547 1.991-2.95 1.883-0.872-0.068-1.64-0.416-2.345-0.913-1.519-1.070-2.496-2.526-2.991-4.304-0.106-0.382-0.117-0.79-0.171-1.187z"></path>
    <path d="M31.951 11.166c-0.235 2.469-1.24 4.378-3.188 5.753-0.541 0.382-1.15 0.603-1.814 0.67-1.124 0.114-2.146-0.519-2.568-1.601-0.371-0.952-0.35-1.926-0.116-2.895 0.449-1.865 1.452-3.372 3.028-4.477 0.698-0.489 1.489-0.689 2.34-0.618 0.989 0.083 1.825 0.825 2.114 1.916 0.117 0.441 0.15 0.904 0.205 1.251z"></path>
    <path d="M78.269 19.356h2.273l-2.997 3.626 3.261 3.938h-2.341l-3.092-3.836v3.836h-2.064v-7.564h2.064v3.674l2.896-3.674z"></path>
    <path d="M71.883 23.125c0 0.631-0.086 1.191-0.257 1.678-0.167 0.487-0.413 0.9-0.737 1.238-0.32 0.334-0.708 0.586-1.164 0.758-0.451 0.171-0.961 0.257-1.529 0.257-0.532 0-1.022-0.086-1.468-0.257-0.442-0.171-0.828-0.424-1.157-0.758-0.325-0.338-0.577-0.751-0.758-1.238-0.176-0.487-0.264-1.047-0.264-1.678 0-0.839 0.149-1.549 0.447-2.131s0.722-1.024 1.272-1.326c0.55-0.302 1.207-0.453 1.969-0.453 0.708 0 1.335 0.151 1.881 0.453 0.55 0.302 0.981 0.744 1.292 1.326 0.316 0.582 0.474 1.292 0.474 2.131zM66.653 23.125c0 0.496 0.054 0.913 0.162 1.252s0.277 0.593 0.507 0.765c0.23 0.171 0.53 0.257 0.9 0.257 0.365 0 0.661-0.086 0.886-0.257 0.23-0.171 0.397-0.426 0.501-0.765 0.108-0.338 0.162-0.755 0.162-1.252 0-0.501-0.054-0.916-0.162-1.245-0.104-0.334-0.271-0.584-0.501-0.751s-0.53-0.25-0.9-0.25c-0.546 0-0.943 0.187-1.191 0.562-0.244 0.374-0.365 0.936-0.365 1.685z"></path>
    <path d="M63.121 19.356v7.564h-2.070v-6.015h-2.74v6.015h-2.063v-7.564h6.874z"></path>
    <path d="M51.246 19.201c1.015 0 1.793 0.221 2.334 0.663s0.812 1.114 0.812 2.016v5.041h-1.441l-0.399-1.028h-0.054c-0.216 0.271-0.438 0.492-0.663 0.663s-0.485 0.298-0.778 0.379c-0.293 0.081-0.65 0.122-1.069 0.122-0.447 0-0.848-0.086-1.204-0.257-0.352-0.171-0.629-0.433-0.832-0.785-0.203-0.356-0.304-0.807-0.304-1.353 0-0.803 0.282-1.394 0.846-1.773 0.564-0.383 1.409-0.595 2.537-0.636l1.313-0.041v-0.332c0-0.397-0.104-0.688-0.311-0.873s-0.496-0.277-0.866-0.277c-0.365 0-0.724 0.052-1.076 0.156s-0.704 0.235-1.055 0.392l-0.683-1.394c0.401-0.212 0.85-0.379 1.346-0.501 0.501-0.122 1.017-0.183 1.549-0.183zM52.342 23.416l-0.798 0.027c-0.668 0.018-1.132 0.138-1.394 0.359-0.257 0.221-0.386 0.512-0.386 0.873 0 0.316 0.092 0.541 0.277 0.677 0.185 0.131 0.426 0.196 0.724 0.196 0.442 0 0.814-0.131 1.116-0.392 0.307-0.262 0.46-0.634 0.46-1.116v-0.622z"></path>
    <path d="M46.090 26.92h-2.091v-8.146h-2.422c-0.054 0.424-0.113 0.886-0.176 1.387s-0.129 1.006-0.196 1.515c-0.068 0.51-0.14 0.994-0.217 1.455-0.072 0.46-0.144 0.864-0.216 1.211-0.117 0.577-0.277 1.069-0.48 1.475-0.199 0.401-0.471 0.708-0.819 0.92-0.343 0.212-0.792 0.318-1.346 0.318-0.185 0-0.363-0.014-0.535-0.041-0.167-0.027-0.322-0.063-0.467-0.108v-1.718c0.117 0.041 0.235 0.074 0.352 0.101 0.117 0.023 0.246 0.034 0.386 0.034 0.18 0 0.329-0.059 0.447-0.176 0.122-0.122 0.23-0.327 0.325-0.616 0.095-0.293 0.189-0.697 0.284-1.211 0.041-0.225 0.095-0.543 0.162-0.954 0.068-0.415 0.144-0.9 0.23-1.455 0.086-0.559 0.174-1.168 0.264-1.827 0.095-0.659 0.185-1.344 0.271-2.057h6.245v9.891z"></path>
    <path d="M92.566 6.533c1.015 0 1.794 0.221 2.334 0.663s0.812 1.114 0.812 2.016v5.041h-1.441l-0.4-1.028h-0.054c-0.217 0.271-0.438 0.492-0.663 0.663s-0.485 0.298-0.778 0.379c-0.293 0.081-0.65 0.122-1.069 0.122-0.446 0-0.848-0.086-1.204-0.257-0.352-0.171-0.63-0.433-0.832-0.785-0.203-0.356-0.304-0.807-0.304-1.353 0-0.803 0.282-1.394 0.846-1.773 0.563-0.383 1.409-0.595 2.537-0.636l1.313-0.041v-0.332c0-0.397-0.104-0.688-0.311-0.873s-0.496-0.277-0.866-0.277c-0.366 0-0.724 0.052-1.076 0.156s-0.704 0.235-1.056 0.392l-0.683-1.394c0.401-0.212 0.85-0.379 1.347-0.501 0.501-0.122 1.017-0.183 1.549-0.183zM93.662 10.748l-0.798 0.027c-0.668 0.018-1.132 0.138-1.394 0.359-0.257 0.221-0.386 0.512-0.386 0.873 0 0.316 0.093 0.541 0.278 0.677 0.185 0.131 0.426 0.196 0.724 0.196 0.442 0 0.814-0.131 1.117-0.392 0.306-0.262 0.46-0.634 0.46-1.116v-0.622z"></path>
    <path d="M86.124 6.688h2.273l-2.997 3.626 3.261 3.938h-2.341l-3.092-3.836v3.836h-2.063v-7.564h2.063v3.674l2.896-3.674z"></path>
    <path d="M74.332 6.688v2.909h2.882v-2.909h2.064v7.564h-2.064v-3.119h-2.882v3.119h-2.064v-7.564h2.064z"></path>
    <path d="M64.555 6.688v2.99c0 0.153-0.007 0.347-0.020 0.582-0.009 0.23-0.023 0.465-0.041 0.704s-0.036 0.453-0.054 0.643c-0.018 0.19-0.032 0.318-0.041 0.386l3.491-5.304h2.483v7.564h-1.996v-3.018c0-0.248 0.009-0.521 0.027-0.819 0.018-0.302 0.038-0.586 0.061-0.853s0.038-0.467 0.047-0.602l-3.478 5.291h-2.476v-7.564h1.996z"></path>
    <path d="M61.423 8.238h-2.476v6.015h-2.064v-6.015h-2.483v-1.549h7.023v1.549z"></path>
    <path d="M50.164 6.533c1.015 0 1.793 0.221 2.334 0.663s0.812 1.114 0.812 2.016v5.041h-1.441l-0.399-1.028h-0.054c-0.216 0.271-0.438 0.492-0.663 0.663s-0.485 0.298-0.778 0.379c-0.293 0.081-0.65 0.122-1.069 0.122-0.447 0-0.848-0.086-1.204-0.257-0.352-0.171-0.629-0.433-0.832-0.785-0.203-0.356-0.304-0.807-0.304-1.353 0-0.803 0.282-1.394 0.846-1.773 0.564-0.383 1.409-0.595 2.537-0.636l1.313-0.041v-0.332c0-0.397-0.104-0.688-0.311-0.873s-0.496-0.277-0.866-0.277c-0.365 0-0.724 0.052-1.076 0.156s-0.704 0.235-1.055 0.392l-0.683-1.394c0.401-0.212 0.85-0.379 1.346-0.501 0.501-0.122 1.017-0.183 1.549-0.183zM51.26 10.748l-0.798 0.027c-0.668 0.018-1.132 0.138-1.394 0.359-0.257 0.221-0.386 0.512-0.386 0.873 0 0.316 0.092 0.541 0.277 0.677 0.185 0.131 0.426 0.196 0.724 0.196 0.442 0 0.814-0.131 1.116-0.392 0.307-0.262 0.46-0.634 0.46-1.116v-0.622z"></path>
    <path d="M46.26 14.252h-2.395l-2.3-3.741-2.3 3.741h-2.246l3.281-5.101-3.072-4.79h2.314l2.131 3.559 2.091-3.559h2.26l-3.105 4.905 3.342 4.986z"></path>
  </symbol>
  <symbol id="icon-Facebook" viewBox="0 0 32 32">
  <path d="M29.333 16.405c0-7.409-5.969-13.415-13.333-13.415s-13.333 6.006-13.333 13.415c0 6.696 4.876 12.245 11.25 13.252v-9.374h-3.385v-3.878h3.385v-2.955c0-3.362 1.991-5.219 5.036-5.219 1.459 0 2.985 0.262 2.985 0.262v3.301h-1.681c-1.656 0-2.173 1.034-2.173 2.095v2.516h3.698l-0.591 3.878h-3.107v9.374c6.374-1.006 11.25-6.556 11.25-13.252z"></path>
  </symbol>
  <symbol id="icon-Instagram" viewBox="0 0 32 32">
  <path d="M15.998 6.161c3.206 0 3.585 0.014 4.846 0.071 1.172 0.052 1.804 0.248 2.226 0.412 0.558 0.216 0.961 0.478 1.378 0.895 0.422 0.422 0.679 0.82 0.9 1.378 0.164 0.422 0.361 1.059 0.412 2.226 0.056 1.266 0.071 1.645 0.071 4.847s-0.014 3.585-0.071 4.847c-0.052 1.172-0.248 1.804-0.412 2.227-0.216 0.558-0.478 0.961-0.895 1.377-0.422 0.422-0.82 0.679-1.378 0.9-0.422 0.164-1.060 0.361-2.226 0.412-1.266 0.056-1.645 0.071-4.847 0.071s-3.585-0.014-4.847-0.071c-1.172-0.052-1.804-0.248-2.226-0.412-0.558-0.216-0.961-0.478-1.378-0.895-0.422-0.422-0.679-0.82-0.9-1.378-0.164-0.422-0.361-1.060-0.412-2.226-0.056-1.266-0.071-1.645-0.071-4.847s0.014-3.585 0.071-4.847c0.052-1.172 0.248-1.804 0.412-2.226 0.216-0.558 0.478-0.961 0.895-1.378 0.422-0.422 0.82-0.679 1.378-0.9 0.422-0.164 1.059-0.361 2.226-0.412 1.261-0.056 1.641-0.071 4.847-0.071h0.001zM15.998 4.001c-3.258 0-3.665 0.014-4.945 0.071-1.275 0.056-2.151 0.262-2.91 0.558-0.792 0.309-1.462 0.717-2.127 1.387-0.67 0.666-1.078 1.336-1.387 2.123-0.295 0.764-0.502 1.636-0.558 2.91-0.056 1.285-0.071 1.692-0.071 4.949s0.014 3.665 0.071 4.945c0.056 1.275 0.262 2.151 0.558 2.91 0.31 0.792 0.717 1.462 1.387 2.127 0.665 0.665 1.336 1.078 2.123 1.383 0.764 0.295 1.636 0.502 2.91 0.558 1.279 0.056 1.687 0.071 4.945 0.071s3.666-0.014 4.945-0.071c1.275-0.056 2.151-0.262 2.91-0.558 0.787-0.305 1.458-0.717 2.123-1.383s1.078-1.336 1.383-2.123c0.295-0.764 0.502-1.635 0.558-2.91 0.056-1.279 0.071-1.687 0.071-4.945s-0.014-3.665-0.071-4.945c-0.056-1.275-0.262-2.151-0.558-2.91-0.295-0.797-0.703-1.467-1.373-2.133-0.665-0.665-1.336-1.078-2.123-1.383-0.764-0.295-1.635-0.502-2.91-0.558-1.284-0.061-1.692-0.075-4.949-0.075l-0.001 0.001z"></path>
  <path d="M15.997 9.836c-3.402 0-6.163 2.76-6.163 6.163s2.76 6.163 6.163 6.163c3.403 0 6.163-2.76 6.163-6.163s-2.76-6.163-6.163-6.163zM15.997 19.997c-2.208 0-3.998-1.79-3.998-3.998s1.79-3.998 3.998-3.998c2.208 0 3.998 1.79 3.998 3.998s-1.79 3.998-3.998 3.998z"></path>
  <path d="M23.842 9.592c0 0.795-0.644 1.439-1.439 1.439s-1.439-0.644-1.439-1.439 0.644-1.439 1.439-1.439c0.795 0 1.439 0.644 1.439 1.439z"></path>
  </symbol>
  <symbol id="icon-arrow_forward" viewBox="0 0 32 32">
  <path stroke-linejoin="miter" stroke-linecap="butt" stroke-miterlimit="4" stroke-width="1.3333" d="M15.993 6.253c0.095 0.001 0.177 0.023 0.259 0.081l0.082 0.070 9.264 9.264c0.071 0.072 0.105 0.128 0.121 0.167v0.001c0.020 0.048 0.031 0.102 0.031 0.165s-0.012 0.116-0.031 0.163v0.001c-0.016 0.038-0.050 0.094-0.121 0.167l-9.272 9.264c-0.122 0.12-0.227 0.155-0.337 0.155-0.108-0-0.204-0.033-0.315-0.147l-0.007-0.007-0.069-0.081c-0.056-0.079-0.075-0.157-0.075-0.243s0.020-0.163 0.075-0.242l0.069-0.081 8.482-8.482h-17.88c-0.163-0-0.259-0.047-0.34-0.128h-0.001c-0.081-0.081-0.128-0.179-0.128-0.341s0.046-0.26 0.128-0.341h0.001c0.081-0.081 0.177-0.127 0.34-0.128h17.88l-8.474-8.474c-0.082-0.082-0.124-0.16-0.141-0.246l-0.008-0.090c-0.001-0.12 0.034-0.218 0.141-0.326l0.001-0.001c0.107-0.107 0.205-0.143 0.324-0.142z"></path>
  </symbol>
  <symbol id="icon-arrow_back" viewBox="0 0 32 32">
  <path stroke-linejoin="miter" stroke-linecap="butt" stroke-miterlimit="4" stroke-width="1.3333" d="M16.010 6.249c0.114 0 0.212 0.035 0.322 0.145 0.11 0.115 0.145 0.217 0.145 0.332-0 0.116-0.035 0.214-0.145 0.324l-8.482 8.482h17.88c0.162 0 0.262 0.047 0.348 0.132 0.083 0.082 0.129 0.177 0.129 0.337s-0.046 0.255-0.129 0.337c-0.085 0.084-0.186 0.131-0.348 0.132h-17.88l8.474 8.473c0.11 0.11 0.147 0.212 0.148 0.335v0.001c0.001 0.089-0.019 0.167-0.074 0.246l-0.069 0.082c-0.107 0.108-0.204 0.143-0.323 0.142-0.126-0.001-0.23-0.041-0.341-0.151l-9.264-9.264c-0.071-0.072-0.105-0.128-0.121-0.167v-0.001c-0.020-0.048-0.031-0.102-0.031-0.165s0.012-0.116 0.031-0.163v-0.001c0.016-0.038 0.050-0.095 0.121-0.167l9.267-9.267c0.121-0.116 0.227-0.152 0.342-0.152z"></path>
  </symbol>
  <symbol id="icon-add" viewBox="0 0 32 32">
  <path d="M14.864 17.136h-7.261c-0.321 0-0.59-0.11-0.808-0.329s-0.327-0.49-0.327-0.812c0-0.322 0.109-0.591 0.327-0.806s0.488-0.323 0.808-0.323h7.261v-7.261c0-0.32 0.11-0.591 0.329-0.812s0.49-0.332 0.812-0.332c0.322 0 0.591 0.111 0.806 0.332s0.323 0.492 0.323 0.812v7.261h7.261c0.32 0 0.591 0.11 0.812 0.329s0.332 0.49 0.332 0.812c0 0.322-0.111 0.591-0.332 0.806s-0.492 0.323-0.812 0.323h-7.261v7.261c0 0.321-0.11 0.59-0.329 0.808s-0.49 0.327-0.812 0.327c-0.322 0-0.591-0.109-0.806-0.327s-0.323-0.488-0.323-0.808v-7.261z"></path>
  </symbol>
  <symbol id="icon-close" viewBox="0 0 32 32">
  <path stroke-linejoin="miter" stroke-linecap="butt" stroke-miterlimit="4" stroke-width="1.3333" d="M23.466 7.9c0.219 0 0.355 0.065 0.462 0.172s0.172 0.242 0.172 0.461c0 0.219-0.065 0.355-0.172 0.462l-7.005 7.005 7.005 7.004c0.107 0.107 0.172 0.243 0.172 0.462s-0.065 0.355-0.172 0.462-0.243 0.172-0.462 0.172c-0.219-0-0.355-0.065-0.462-0.172l-7.004-7.005-7.005 7.005c-0.107 0.107-0.243 0.172-0.462 0.172s-0.354-0.065-0.461-0.172c-0.107-0.107-0.172-0.243-0.172-0.462s0.065-0.355 0.172-0.462l7.004-7.004-7.004-7.005c-0.107-0.107-0.172-0.243-0.172-0.462s0.065-0.354 0.172-0.461 0.242-0.172 0.461-0.172c0.219 0 0.355 0.065 0.462 0.172l7.005 7.004 7.004-7.004c0.107-0.107 0.243-0.172 0.462-0.172z"></path>
  </symbol>
  <symbol id="icon-star-outline" viewBox="0 0 32 32">
  <path stroke-linejoin="miter" stroke-linecap="butt" stroke-miterlimit="4" stroke-width="2.6667" d="M16.010 5.335l2.704 6.424c0.389 0.924 1.263 1.545 2.255 1.624l7.011 0.555-5.329 4.509c-0.763 0.646-1.102 1.668-0.866 2.646l1.63 6.754c-0.002 0.001-0.003 0.003-0.005 0.004-0.002-0.001-0.006-0.003-0.010-0.005l-6.012-3.628c-0.853-0.515-1.923-0.515-2.776 0l-6.012 3.628c-0.005 0.003-0.008 0.004-0.010 0.005-0.002-0.001-0.004-0.002-0.007-0.004l1.631-6.754c0.221-0.916-0.062-1.871-0.728-2.519l-0.138-0.126-5.331-4.509 7.012-0.555c0.992-0.079 1.866-0.7 2.255-1.624l2.703-6.424c0.003-0.001 0.007-0.001 0.012-0.001s0.007 0.001 0.010 0.001z"></path>
  </symbol>
  <symbol id="icon-star-filled" viewBox="0 0 32 32">
  <path d="M14.761 4.816c0.458-1.089 2.019-1.089 2.478 0l2.705 6.425c0.193 0.459 0.63 0.772 1.132 0.812l7.021 0.556c1.19 0.094 1.672 1.561 0.766 2.328l-5.349 4.527c-0.382 0.323-0.549 0.831-0.432 1.314l1.634 6.769c0.277 1.147-0.986 2.053-2.004 1.439l-6.011-3.627c-0.429-0.259-0.969-0.259-1.399 0l-6.011 3.627c-1.018 0.615-2.281-0.292-2.004-1.439l1.634-6.769c0.117-0.483-0.050-0.991-0.432-1.314l-5.35-4.527c-0.906-0.767-0.424-2.234 0.766-2.328l7.021-0.556c0.502-0.040 0.938-0.353 1.132-0.812l2.705-6.425z"></path>
  </symbol>
  <symbol id="icon-star-half" viewBox="0 0 32 32">
  <path stroke-linejoin="miter" stroke-linecap="butt" stroke-miterlimit="4" stroke-width="1.3333" d="M15.375 5.076c0.229-0.545 1.021-0.545 1.25 0l2.704 6.424c0.291 0.691 0.947 1.16 1.694 1.219l7.021 0.556c0.61 0.048 0.828 0.78 0.388 1.154l-5.35 4.527c-0.573 0.485-0.826 1.25-0.65 1.98l1.635 6.768c0.133 0.549-0.482 1.031-1.013 0.711h-0.001l-6.009-3.626c-0.641-0.387-1.447-0.387-2.089 0l-6.010 3.626c-0.531 0.32-1.146-0.162-1.013-0.711l1.635-6.768c0.176-0.73-0.077-1.495-0.65-1.98l-5.35-4.527c-0.44-0.373-0.222-1.105 0.388-1.154l7.021-0.556c0.747-0.059 1.403-0.527 1.694-1.219l2.704-6.424z"></path>
  </symbol>
  <symbol id="icon-menu" viewBox="0 0 32 32">
  <path d="M4.936 24.295c-0.321 0-0.59-0.11-0.808-0.329s-0.327-0.493-0.327-0.82c0-0.322 0.109-0.591 0.327-0.807s0.488-0.323 0.808-0.323h22.127c0.321 0 0.591 0.11 0.812 0.329s0.331 0.49 0.331 0.812c0 0.328-0.11 0.599-0.331 0.814s-0.492 0.323-0.812 0.323h-22.127zM4.936 17.136c-0.321 0-0.59-0.11-0.808-0.329s-0.327-0.49-0.327-0.812c0-0.322 0.109-0.591 0.327-0.806s0.488-0.323 0.808-0.323h22.127c0.321 0 0.591 0.11 0.812 0.329s0.331 0.49 0.331 0.812c0 0.322-0.11 0.591-0.331 0.806s-0.492 0.323-0.812 0.323h-22.127zM4.936 9.984c-0.321 0-0.59-0.11-0.808-0.329s-0.327-0.493-0.327-0.82c0-0.322 0.109-0.591 0.327-0.806s0.488-0.323 0.808-0.323h22.127c0.321 0 0.591 0.11 0.812 0.329s0.331 0.49 0.331 0.812c0 0.328-0.11 0.599-0.331 0.815s-0.492 0.323-0.812 0.323h-22.127z"></path>
  </symbol>

  </defs>
</svg>
